<svg width="191" height="191" viewBox="0 0 191 191" fill="none" xmlns="http://www.w3.org/2000/svg">
<mask id="path-1-inside-1" fill="white">
<path fill-rule="evenodd" clip-rule="evenodd" d="M41.5466 39.971C58.803 39.971 72.7921 25.982 72.7921 8.72558C72.7921 6.85923 72.6284 5.03111 72.3147 3.25477C79.6291 1.44829 87.2775 0.489899 95.1498 0.489899C147.57 0.489899 190.065 42.985 190.065 95.4054C190.065 147.826 147.57 190.321 95.1498 190.321C42.7295 190.321 0.234375 147.826 0.234375 95.4054C0.234375 88.9361 0.881593 82.618 2.11481 76.5122C4.17948 76.9417 6.31885 77.1675 8.51095 77.1675C25.7673 77.1675 39.7564 63.1784 39.7564 45.922C39.7564 43.8558 39.5558 41.8364 39.1731 39.8822C39.9566 39.9411 40.7481 39.971 41.5466 39.971ZM94.812 120.063C108.617 120.063 119.808 108.872 119.808 95.0676C119.808 81.2629 108.617 70.0721 94.812 70.0721C81.0074 70.0721 69.8165 81.2629 69.8165 95.0676C69.8165 108.872 81.0074 120.063 94.812 120.063Z"/>
</mask>
<path fill-rule="evenodd" clip-rule="evenodd" d="M41.5466 39.971C58.803 39.971 72.7921 25.982 72.7921 8.72558C72.7921 6.85923 72.6284 5.03111 72.3147 3.25477C79.6291 1.44829 87.2775 0.489899 95.1498 0.489899C147.57 0.489899 190.065 42.985 190.065 95.4054C190.065 147.826 147.57 190.321 95.1498 190.321C42.7295 190.321 0.234375 147.826 0.234375 95.4054C0.234375 88.9361 0.881593 82.618 2.11481 76.5122C4.17948 76.9417 6.31885 77.1675 8.51095 77.1675C25.7673 77.1675 39.7564 63.1784 39.7564 45.922C39.7564 43.8558 39.5558 41.8364 39.1731 39.8822C39.9566 39.9411 40.7481 39.971 41.5466 39.971ZM94.812 120.063C108.617 120.063 119.808 108.872 119.808 95.0676C119.808 81.2629 108.617 70.0721 94.812 70.0721C81.0074 70.0721 69.8165 81.2629 69.8165 95.0676C69.8165 108.872 81.0074 120.063 94.812 120.063Z" fill="#DF3E7B"/>
<path d="M72.3147 3.25477L69.917 -6.45352L60.8413 -4.21203L62.4671 4.99388L72.3147 3.25477ZM2.11481 76.5122L4.15147 66.7218L-5.69593 64.6733L-7.68725 74.5324L2.11481 76.5122ZM39.1731 39.8822L39.9221 29.9103L26.8377 28.9276L29.3596 41.8042L39.1731 39.8822ZM62.7921 8.72558C62.7921 20.4591 53.2802 29.971 41.5466 29.971V49.971C64.3258 49.971 82.7921 31.5048 82.7921 8.72558H62.7921ZM62.4671 4.99388C62.6799 6.19859 62.7921 7.44483 62.7921 8.72558H82.7921C82.7921 6.27364 82.577 3.86363 82.1623 1.51566L62.4671 4.99388ZM74.7125 12.9631C81.2484 11.3488 88.0919 10.4899 95.1498 10.4899V-9.5101C86.4631 -9.5101 78.0097 -8.45223 69.917 -6.45352L74.7125 12.9631ZM95.1498 10.4899C142.047 10.4899 180.065 48.5078 180.065 95.4054H200.065C200.065 37.4621 153.093 -9.5101 95.1498 -9.5101V10.4899ZM180.065 95.4054C180.065 142.303 142.047 180.321 95.1498 180.321V200.321C153.093 200.321 200.065 153.349 200.065 95.4054H180.065ZM95.1498 180.321C48.2523 180.321 10.2344 142.303 10.2344 95.4054H-9.76562C-9.76562 153.349 37.2066 200.321 95.1498 200.321V180.321ZM10.2344 95.4054C10.2344 89.6047 10.8145 83.9497 11.9169 78.492L-7.68725 74.5324C-9.05136 81.2862 -9.76562 88.2675 -9.76562 95.4054H10.2344ZM0.0781544 86.3026C2.80882 86.8707 5.63058 87.1675 8.51095 87.1675V67.1675C7.00713 67.1675 5.55014 67.0128 4.15147 66.7218L0.0781544 86.3026ZM8.51095 87.1675C31.2902 87.1675 49.7564 68.7012 49.7564 45.922H29.7564C29.7564 57.6556 20.2445 67.1675 8.51095 67.1675V87.1675ZM49.7564 45.922C49.7564 43.2072 49.4927 40.5442 48.9867 37.9603L29.3596 41.8042C29.6189 43.1286 29.7564 44.5044 29.7564 45.922H49.7564ZM41.5466 29.971C40.9983 29.971 40.4566 29.9505 39.9221 29.9103L38.4241 49.8542C39.4566 49.9317 40.4979 49.971 41.5466 49.971V29.971ZM109.808 95.0676C109.808 103.349 103.094 110.063 94.812 110.063V130.063C114.14 130.063 129.808 114.395 129.808 95.0676H109.808ZM94.812 80.0721C103.094 80.0721 109.808 86.7858 109.808 95.0676H129.808C129.808 75.7401 114.14 60.0721 94.812 60.0721V80.0721ZM79.8165 95.0676C79.8165 86.7858 86.5302 80.0721 94.812 80.0721V60.0721C75.4845 60.0721 59.8165 75.7401 59.8165 95.0676H79.8165ZM94.812 110.063C86.5302 110.063 79.8165 103.349 79.8165 95.0676H59.8165C59.8165 114.395 75.4845 130.063 94.812 130.063V110.063Z" fill="#FFA5B6" mask="url(#path-1-inside-1)"/>
<rect x="134.901" y="36.2943" width="29.3706" height="5.11741" transform="rotate(44.844 134.901 36.2943)" fill="#F5C0A3"/>
<rect x="17.7988" y="94.7542" width="21.4418" height="5.11741" transform="rotate(-11.3229 17.7988 94.7542)" fill="#F5C0A3"/>
<rect x="46.1724" y="139.811" width="21.4418" height="5.11741" transform="rotate(-11.3229 46.1724 139.811)" fill="#BBC7FE"/>
<circle cx="129.941" cy="142.356" r="5.40444" fill="#BBF8FF"/>
<circle cx="136.021" cy="128.845" r="2.02666" fill="#BBF8FF"/>
<circle cx="141.426" cy="138.303" r="2.02666" fill="#BBF8FF"/>
<path d="M142.101 149.788C142.101 150.907 141.193 151.814 140.074 151.814C138.955 151.814 138.047 150.907 138.047 149.788C138.047 148.668 138.955 147.761 140.074 147.761C141.193 147.761 142.101 148.668 142.101 149.788Z" fill="#BBF8FF"/>
</svg>
